<svg width="90" height="104" viewBox="0 0 90 104" fill="none" xmlns="http://www.w3.org/2000/svg">
<path d="M66.8146 85.3827C71.4062 83.1547 74.1109 82.1141 79.0121 80.6913C81.1885 80.0596 82.3906 79.5446 84.6418 79.2839C86.6437 79.0521 89.8023 79.2839 89.8023 79.2839L85.58 84.4444C83.1682 87.1538 81.7516 88.6347 79.0121 91.0123C76.2449 93.4141 74.6686 94.7916 71.506 96.642C66.3044 99.6853 62.8504 100.516 56.9627 101.802C51.5663 102.981 42.8887 103.21 42.8887 103.21C42.8887 103.21 48.883 97.1365 53.2097 93.8271C58.1766 90.028 61.1887 88.1127 66.8146 85.3827Z" fill="#0FC570"/>
<path d="M86.0489 76.4691C86.0489 76.4691 79.118 76.9273 74.7897 77.8765C69.3001 79.0803 66.3297 80.3064 61.1847 82.5678C55.0268 85.2745 51.5098 86.9186 46.1724 91.0123C41.2383 94.7967 34.9131 102.272 34.9131 102.272C34.9131 102.272 29.9732 101.407 26.9378 100.395C23.9024 99.3832 19.4316 97.111 19.4316 97.111C19.4316 97.111 22.8966 93.1119 25.5304 91.0123C27.9147 89.1115 29.5088 88.4001 32.0983 86.7901C34.82 85.0978 36.2668 83.997 39.1353 82.5678C40.7504 81.7632 41.7049 81.4155 43.3576 80.6913C45.9135 79.5713 47.2886 78.7898 49.9255 77.8765C52.613 76.9456 54.1902 76.6353 56.9625 75.9999C61.1315 75.0445 63.4883 74.4534 67.7526 74.1234C71.2232 73.8548 73.214 73.6772 76.6662 74.1234C78.5192 74.3629 79.5445 74.6105 81.3576 75.0617C83.2137 75.5235 86.0489 76.4691 86.0489 76.4691Z" fill="#0FC570"/>
<path d="M25.5306 17.8272C25.5306 17.8272 26.4689 18.2963 29.7528 21.1111C33.0368 23.9259 33.5059 24.8642 33.5059 24.8642C33.5059 24.8642 36.7899 28.1481 37.7281 32.3704C38.6664 36.5926 38.1973 40.8148 38.1973 40.8148C38.1973 40.8148 39.8216 43.589 40.5429 45.5062C41.341 47.6272 41.9504 51.1358 41.9504 51.1358C41.9504 51.1358 45.7305 42.2727 48.9874 37.0617C51.9004 32.4009 54.0491 30.1344 57.4318 25.8025C60.4784 21.901 65.4071 15.9506 65.4071 15.9506C65.4071 15.9506 61.2609 19.2249 58.8392 21.5802C53.2179 27.0477 46.6417 37.5309 46.6417 37.5309C46.6417 37.5309 44.9504 33.332 44.7652 30.4938C44.5475 27.1577 46.1726 22.0494 46.1726 22.0494C46.1726 22.0494 48.1284 17.556 49.9257 15.0123C51.7961 12.3652 53.0973 11.0264 55.5553 8.91358C58.6775 6.22981 60.7394 5.02796 64.4689 3.28395C68.3004 1.49225 74.7899 0 74.7899 0C74.7899 0 75.9074 4.53787 76.1973 7.50617C76.5178 10.7883 76.1973 15.9506 76.1973 15.9506C76.1973 15.9506 75.4438 20.9694 74.3207 23.9259C73.5056 26.0719 73.2672 27.189 71.975 29.0864C70.0049 31.9795 68.7107 33.6006 65.8763 35.6543C64.0174 37.0012 62.8499 37.6235 60.7158 38.4691C58.7738 39.2387 57.4572 39.0127 55.5553 39.8765C53.9816 40.5913 53.1105 41.0928 51.8022 42.2222C50.5236 43.326 49.9493 44.1177 48.9874 45.5062C46.1491 49.6028 45.929 52.7685 45.2343 57.7037C44.6214 62.0578 45.2343 68.963 45.2343 68.963C45.2343 68.963 51.2638 68.9571 55.0862 69.4321C58.7944 69.8929 64.4689 71.3086 64.4689 71.3086C64.4689 71.3086 45.7714 73.1966 34.9133 77.8765C25.2997 82.0201 12.3948 92.4198 12.3948 92.4198C12.3948 92.4198 7.8413 88.6738 5.35776 85.8519C3.10628 83.2936 0.197266 78.8148 0.197266 78.8148C0.197266 78.8148 11.3824 73.7263 18.9627 71.7778C25.9643 69.978 37.259 68.963 37.259 68.963C37.259 68.963 39.9343 59.3855 37.7281 53.9506C35.874 49.3829 36.8405 50.2043 35.3825 48.321C33.5158 45.9099 28.8146 44.0988 28.8146 44.0988C28.8146 44.0988 22.7158 42.6914 18.4936 39.4074C14.2713 36.1235 11.4565 30.0247 11.4565 30.0247C11.4565 30.0247 10.0491 26.7407 9.57998 22.5185C9.11085 18.2963 10.0491 14.5432 10.0491 14.5432C10.0491 14.5432 14.6726 14.4499 17.5553 15.0123C20.797 15.6448 25.5306 17.8272 25.5306 17.8272Z" fill="#0FC570"/>
<path d="M18.0244 23.4568C18.0244 23.4568 21.5672 25.5892 23.654 27.2099C26.0096 29.0392 27.2895 30.1527 29.2837 32.3704C31.1212 34.4138 32.4936 35.4451 33.5059 38C34.1941 39.737 34.4442 42.6914 34.4442 42.6914C34.4442 42.6914 30.0696 36.5257 26.938 32.8395C23.6658 28.9877 18.0244 23.4568 18.0244 23.4568Z" fill="#2D3732"/>
</svg>
