<svg width="91" height="105" viewBox="0 0 91 105" fill="none" xmlns="http://www.w3.org/2000/svg">
<path d="M67.5802 86.2778C72.1718 84.0497 74.8765 83.0092 79.7778 81.5864C81.9541 80.9546 83.1563 80.4397 85.4074 80.179C87.4093 79.9472 90.5679 80.179 90.5679 80.179L86.3457 85.3395C83.9338 88.0489 82.5172 89.5298 79.7778 91.9074C77.0105 94.3092 75.4342 95.6866 72.2716 97.537C67.07 100.58 63.616 101.412 57.7284 102.698C52.3319 103.876 43.6543 104.105 43.6543 104.105C43.6543 104.105 49.6486 98.0316 53.9753 94.7222C58.9422 90.9231 61.9543 89.0077 67.5802 86.2778Z" fill="#0FC570"/>
<path d="M86.8146 77.3642C86.8146 77.3642 79.8837 77.8224 75.5553 78.7716C70.0657 79.9755 67.0954 81.2015 61.9504 83.463C55.7924 86.1696 52.2754 87.8137 46.938 91.9074C42.0039 95.6918 35.6787 103.167 35.6787 103.167C35.6787 103.167 30.7389 102.302 27.7034 101.29C24.668 100.278 20.1973 98.0062 20.1973 98.0062C20.1973 98.0062 23.6623 94.007 26.296 91.9074C28.6803 90.0067 30.2744 89.2952 32.8639 87.6852C35.5856 85.993 37.0324 84.8921 39.901 83.463C41.516 82.6583 42.4705 82.3106 44.1232 81.5864C46.6791 80.4664 48.0542 79.6849 50.6911 78.7716C53.3786 77.8407 54.9558 77.5304 57.7281 76.8951C61.8971 75.9396 64.2539 75.3486 68.5183 75.0185C71.9888 74.7499 73.9796 74.5723 77.4318 75.0185C79.2848 75.258 80.3101 75.5057 82.1232 75.9568C83.9794 76.4187 86.8146 77.3642 86.8146 77.3642Z" fill="#0FC570"/>
<path d="M26.2962 18.7222C26.2962 18.7222 27.2345 19.1914 30.5184 22.0062C33.8024 24.821 34.2715 25.7593 34.2715 25.7593C34.2715 25.7593 37.5555 29.0432 38.4938 33.2655C39.432 37.4877 38.9629 41.7099 38.9629 41.7099C38.9629 41.7099 40.5873 44.4841 41.3086 46.4013C42.1066 48.5223 42.716 52.0309 42.716 52.0309C42.716 52.0309 46.4962 43.1678 49.753 37.9568C52.666 33.296 54.8147 31.0295 58.1975 26.6975C61.244 22.7961 66.1728 16.8457 66.1728 16.8457C66.1728 16.8457 62.0265 20.1199 59.6049 22.4753C53.9836 27.9428 47.4073 38.4259 47.4073 38.4259C47.4073 38.4259 45.716 34.227 45.5308 31.3889C45.3131 28.0528 46.9382 22.9445 46.9382 22.9445C46.9382 22.9445 48.894 18.4511 50.6913 15.9074C52.5617 13.2603 53.8629 11.9215 56.3209 9.80866C59.4431 7.1249 61.505 5.92304 65.2345 4.17903C69.066 2.38733 75.5555 0.895081 75.5555 0.895081C75.5555 0.895081 76.673 5.43295 76.9629 8.40125C77.2834 11.6834 76.9629 16.8457 76.9629 16.8457C76.9629 16.8457 76.2094 21.8644 75.0863 24.821C74.2712 26.967 74.0328 28.0841 72.7407 29.9815C70.7705 32.8746 69.4763 34.4957 66.6419 36.5494C64.783 37.8963 63.6156 38.5185 61.4814 39.3642C59.5394 40.1338 58.2228 39.9078 56.3209 40.7716C54.7472 41.4864 53.8762 41.9879 52.5678 43.1173C51.2892 44.2211 50.715 45.0128 49.753 46.4013C46.9147 50.4979 46.6946 53.6636 45.9999 58.5988C45.387 62.9529 45.9999 69.858 45.9999 69.858C45.9999 69.858 52.0294 69.8522 55.8518 70.3272C59.56 70.788 65.2345 72.2037 65.2345 72.2037C65.2345 72.2037 46.537 74.0917 35.6789 78.7716C26.0653 82.9152 13.1604 93.3148 13.1604 93.3148C13.1604 93.3148 8.60693 89.5688 6.12338 86.7469C3.8719 84.1887 0.962891 79.7099 0.962891 79.7099C0.962891 79.7099 12.1481 74.6214 19.7283 72.6729C26.7299 70.8731 38.0246 69.858 38.0246 69.858C38.0246 69.858 40.6999 60.2805 38.4938 54.8457C36.6396 50.278 37.6061 51.0993 36.1481 49.2161C34.2814 46.805 29.5802 44.9938 29.5802 44.9938C29.5802 44.9938 23.4814 43.5864 19.2592 40.3025C15.037 37.0185 12.2222 30.9198 12.2222 30.9198C12.2222 30.9198 10.8147 27.6358 10.3456 23.4136C9.87647 19.1914 10.8147 15.4383 10.8147 15.4383C10.8147 15.4383 15.4382 15.345 18.3209 15.9074C21.5626 16.5399 26.2962 18.7222 26.2962 18.7222Z" fill="#0FC570"/>
<path d="M18.79 24.3519C18.79 24.3519 22.3328 26.4843 24.4197 28.105C26.7752 29.9343 28.0551 31.0478 30.0493 33.2654C31.8868 35.3089 33.2592 36.3402 34.2715 38.8951C34.9598 40.6321 35.2098 43.5864 35.2098 43.5864C35.2098 43.5864 30.8352 37.4208 27.7036 33.7346C24.4314 29.8828 18.79 24.3519 18.79 24.3519Z" fill="white"/>
</svg>
